<svg width="1353" height="299" viewBox="0 0 1353 299" fill="none" xmlns="http://www.w3.org/2000/svg">
<path d="M149.016 298.031C109.212 298.031 71.7914 282.531 43.6453 254.386C15.5004 226.24 0 188.819 0 149.016C0 109.213 15.5004 71.7914 43.6453 43.6465C71.7914 15.5004 109.212 0 149.016 0C182.392 0 213.234 9.92812 239.55 30.334C243.721 33.5683 244.48 39.5719 241.246 43.7426C238.011 47.9144 232.008 48.6738 227.836 45.4383C204.903 27.6562 178.112 19.1144 149.016 19.1144C114.318 19.1144 81.6972 32.6273 57.1617 57.1617C32.6262 81.6972 19.1144 114.319 19.1144 149.016C19.1144 183.714 32.6262 216.335 57.1617 240.869C81.6972 265.405 114.318 278.917 149.016 278.917C177.922 278.917 205.281 269.627 228.132 252.054C232.317 248.836 238.317 249.619 241.534 253.802C244.752 257.987 243.969 263.987 239.784 267.205C213.562 287.372 182.175 298.031 149.016 298.031ZM179.848 148.582C179.848 165.856 165.844 179.859 148.571 179.859C131.296 179.859 117.292 165.856 117.292 148.582C117.292 131.307 131.296 117.304 148.571 117.304C165.844 117.304 179.848 131.307 179.848 148.582ZM220.78 148.533C220.78 155.118 215.442 160.456 208.857 160.456C202.273 160.456 196.935 155.118 196.935 148.533C196.935 141.949 202.273 136.611 208.857 136.611C215.442 136.611 220.78 141.949 220.78 148.533ZM259.599 125.944C259.599 132.528 254.262 137.866 247.677 137.866C241.093 137.866 235.755 132.528 235.755 125.944C235.755 119.359 241.093 114.021 247.677 114.021C254.262 114.021 259.599 119.359 259.599 125.944ZM259.599 173.247C259.599 179.831 254.262 185.169 247.677 185.169C241.093 185.169 235.755 179.831 235.755 173.247C235.755 166.662 241.093 161.324 247.677 161.324C254.262 161.324 259.599 166.662 259.599 173.247ZM300 125.944C300 132.528 294.662 137.866 288.077 137.866C281.494 137.866 276.156 132.528 276.156 125.944C276.156 119.359 281.494 114.021 288.077 114.021C294.662 114.021 300 119.359 300 125.944ZM280.307 80.475C280.307 87.0597 274.969 92.3976 268.384 92.3976C261.8 92.3976 256.462 87.0597 256.462 80.475C256.462 73.8902 261.8 68.5523 268.384 68.5523C274.969 68.5523 280.307 73.8902 280.307 80.475ZM280.307 217.461C280.307 224.045 274.969 229.383 268.384 229.383C261.8 229.383 256.462 224.045 256.462 217.461C256.462 210.876 261.8 205.538 268.384 205.538C274.969 205.538 280.307 210.876 280.307 217.461ZM300 173.247C300 179.831 294.662 185.169 288.077 185.169C281.494 185.169 276.156 179.831 276.156 173.247C276.156 166.662 281.494 161.324 288.077 161.324C294.662 161.324 300 166.662 300 173.247Z" fill="#25C7B7"/>
<path d="M149.016 298.031C109.212 298.031 71.7914 282.531 43.6453 254.386C15.5004 226.24 0 188.819 0 149.016C0 109.213 15.5004 71.7914 43.6453 43.6465C71.7914 15.5004 109.212 0 149.016 0C182.392 0 213.234 9.92812 239.55 30.334C243.721 33.5683 244.48 39.5719 241.246 43.7426C238.011 47.9144 232.008 48.6738 227.836 45.4383C204.903 27.6562 178.112 19.1144 149.016 19.1144C114.318 19.1144 81.6972 32.6273 57.1617 57.1617C32.6262 81.6972 19.1144 114.319 19.1144 149.016C19.1144 183.714 32.6262 216.335 57.1617 240.869C81.6972 265.405 114.318 278.917 149.016 278.917C177.922 278.917 205.281 269.627 228.132 252.054C232.317 248.836 238.317 249.619 241.534 253.802C244.752 257.987 243.969 263.987 239.784 267.205C213.562 287.372 182.175 298.031 149.016 298.031ZM179.848 148.582C179.848 165.856 165.844 179.859 148.571 179.859C131.296 179.859 117.292 165.856 117.292 148.582C117.292 131.307 131.296 117.304 148.571 117.304C165.844 117.304 179.848 131.307 179.848 148.582ZM220.78 148.533C220.78 155.118 215.442 160.456 208.857 160.456C202.273 160.456 196.935 155.118 196.935 148.533C196.935 141.949 202.273 136.611 208.857 136.611C215.442 136.611 220.78 141.949 220.78 148.533ZM259.599 125.944C259.599 132.528 254.262 137.866 247.677 137.866C241.093 137.866 235.755 132.528 235.755 125.944C235.755 119.359 241.093 114.021 247.677 114.021C254.262 114.021 259.599 119.359 259.599 125.944ZM259.599 173.247C259.599 179.831 254.262 185.169 247.677 185.169C241.093 185.169 235.755 179.831 235.755 173.247C235.755 166.662 241.093 161.324 247.677 161.324C254.262 161.324 259.599 166.662 259.599 173.247ZM300 125.944C300 132.528 294.662 137.866 288.077 137.866C281.494 137.866 276.156 132.528 276.156 125.944C276.156 119.359 281.494 114.021 288.077 114.021C294.662 114.021 300 119.359 300 125.944ZM280.307 80.475C280.307 87.0597 274.969 92.3976 268.384 92.3976C261.8 92.3976 256.462 87.0597 256.462 80.475C256.462 73.8902 261.8 68.5523 268.384 68.5523C274.969 68.5523 280.307 73.8902 280.307 80.475ZM280.307 217.461C280.307 224.045 274.969 229.383 268.384 229.383C261.8 229.383 256.462 224.045 256.462 217.461C256.462 210.876 261.8 205.538 268.384 205.538C274.969 205.538 280.307 210.876 280.307 217.461ZM300 173.247C300 179.831 294.662 185.169 288.077 185.169C281.494 185.169 276.156 179.831 276.156 173.247C276.156 166.662 281.494 161.324 288.077 161.324C294.662 161.324 300 166.662 300 173.247Z" fill="#25C7B7"/>
<path d="M28.4 113C21.2667 113 15.6667 111 11.6 107C7.6 102.933 5.46667 97.2667 5.2 90L5.1 86L5.2 82C5.46667 74.7333 7.6 69.1 11.6 65.1C15.6667 61.0333 21.2667 59 28.4 59C33.2 59 37.2667 59.8667 40.6 61.6C43.9333 63.3333 46.4 65.4667 48 68C49.6667 70.5333 50.5667 73.0667 50.7 75.6C50.7667 76.2667 50.5667 76.8 50.1 77.2C49.6333 77.6 49.0667 77.8 48.4 77.8H43.6C42.9333 77.8 42.4333 77.6667 42.1 77.4C41.7667 77.1333 41.4333 76.6 41.1 75.8C39.9667 72.6 38.3667 70.3333 36.3 69C34.2333 67.6 31.6333 66.9 28.5 66.9C24.3667 66.9 21.0667 68.2 18.6 70.8C16.2 73.3333 14.9 77.2333 14.7 82.5L14.6 86.1L14.7 89.5C14.9 94.8333 16.2 98.7667 18.6 101.3C21 103.833 24.3 105.1 28.5 105.1C31.6333 105.1 34.2333 104.433 36.3 103.1C38.3667 101.7 39.9667 99.4 41.1 96.2C41.4333 95.4 41.7667 94.8667 42.1 94.6C42.4333 94.2667 42.9333 94.1 43.6 94.1H48.4C49.0667 94.1 49.6333 94.3333 50.1 94.8C50.5667 95.2 50.7667 95.7333 50.7 96.4C50.5667 98.8667 49.6667 101.4 48 104C46.4 106.533 43.9333 108.667 40.6 110.4C37.3333 112.133 33.2667 113 28.4 113ZM86.0758 113C82.8091 113 79.7758 112.333 76.9758 111C74.1758 109.667 71.9424 107.867 70.2758 105.6C68.6758 103.267 67.8758 100.7 67.8758 97.9C67.8758 93.5 69.6758 89.9 73.2758 87.1C76.9424 84.2333 81.8758 82.3667 88.0758 81.5L102.976 79.4V76.5C102.976 69.7 99.0758 66.3 91.2758 66.3C88.3424 66.3 85.9424 66.9333 84.0758 68.2C82.2091 69.4 80.8091 70.8333 79.8758 72.5C79.6758 73.1 79.4091 73.5333 79.0758 73.8C78.8091 74.0667 78.4091 74.2 77.8758 74.2H73.5758C72.9758 74.2 72.4424 74 71.9758 73.6C71.5758 73.1333 71.3758 72.6 71.3758 72C71.4424 70.4 72.1758 68.6 73.5758 66.6C75.0424 64.5333 77.2758 62.7667 80.2758 61.3C83.2758 59.7667 86.9758 59 91.3758 59C98.8424 59 104.209 60.7667 107.476 64.3C110.742 67.7667 112.376 72.1 112.376 77.3V109.7C112.376 110.367 112.142 110.933 111.676 111.4C111.276 111.8 110.742 112 110.076 112H105.476C104.809 112 104.242 111.8 103.776 111.4C103.376 110.933 103.176 110.367 103.176 109.7V105.4C101.709 107.533 99.5758 109.333 96.7758 110.8C93.9758 112.267 90.4091 113 86.0758 113ZM88.1758 105.5C92.5091 105.5 96.0424 104.1 98.7758 101.3C101.576 98.4333 102.976 94.3333 102.976 89V86.2L91.3758 87.9C86.6424 88.5667 83.0758 89.7 80.6758 91.3C78.2758 92.8333 77.0758 94.8 77.0758 97.2C77.0758 99.8667 78.1758 101.933 80.3758 103.4C82.5758 104.8 85.1758 105.5 88.1758 105.5ZM138.052 112C137.385 112 136.818 111.8 136.352 111.4C135.952 110.933 135.752 110.367 135.752 109.7V62.4C135.752 61.7333 135.952 61.1667 136.352 60.7C136.818 60.2333 137.385 60 138.052 60H142.652C143.318 60 143.885 60.2333 144.352 60.7C144.818 61.1667 145.052 61.7333 145.052 62.4V66.8C147.785 62.2667 152.452 60 159.052 60H162.952C163.618 60 164.152 60.2333 164.552 60.7C165.018 61.1 165.252 61.6333 165.252 62.3V66.4C165.252 67.0667 165.018 67.6 164.552 68C164.152 68.4 163.618 68.6 162.952 68.6H156.952C153.352 68.6 150.518 69.6667 148.452 71.8C146.385 73.8667 145.352 76.7 145.352 80.3V109.7C145.352 110.367 145.118 110.933 144.652 111.4C144.185 111.8 143.618 112 142.952 112H138.052ZM202.563 113C195.697 113 190.197 110.9 186.063 106.7C181.997 102.433 179.763 96.6333 179.363 89.3L179.263 85.9L179.363 82.6C179.83 75.4 182.097 69.6667 186.163 65.4C190.297 61.1333 195.73 59 202.463 59C209.863 59 215.597 61.3667 219.663 66.1C223.73 70.7667 225.763 77.1 225.763 85.1V86.8C225.763 87.4667 225.53 88.0333 225.063 88.5C224.663 88.9 224.13 89.1 223.463 89.1H188.863V90C189.063 94.3333 190.363 98.0333 192.763 101.1C195.23 104.1 198.463 105.6 202.463 105.6C205.53 105.6 208.03 105 209.963 103.8C211.963 102.533 213.43 101.233 214.363 99.9C214.963 99.1 215.397 98.6333 215.663 98.5C215.997 98.3 216.563 98.2 217.363 98.2H222.263C222.863 98.2 223.363 98.3667 223.763 98.7C224.163 99.0333 224.363 99.5 224.363 100.1C224.363 101.567 223.43 103.333 221.563 105.4C219.763 107.467 217.197 109.267 213.863 110.8C210.597 112.267 206.83 113 202.563 113ZM216.263 82.2V81.9C216.263 77.3 214.997 73.5667 212.463 70.7C209.997 67.7667 206.663 66.3 202.463 66.3C198.263 66.3 194.93 67.7667 192.463 70.7C190.063 73.5667 188.863 77.3 188.863 81.9V82.2H216.263ZM267.52 113C260.654 113 255.154 110.9 251.02 106.7C246.954 102.433 244.72 96.6333 244.32 89.3L244.22 85.9L244.32 82.6C244.787 75.4 247.054 69.6667 251.12 65.4C255.254 61.1333 260.687 59 267.42 59C274.82 59 280.554 61.3667 284.62 66.1C288.687 70.7667 290.72 77.1 290.72 85.1V86.8C290.72 87.4667 290.487 88.0333 290.02 88.5C289.62 88.9 289.087 89.1 288.42 89.1H253.82V90C254.02 94.3333 255.32 98.0333 257.72 101.1C260.187 104.1 263.42 105.6 267.42 105.6C270.487 105.6 272.987 105 274.92 103.8C276.92 102.533 278.387 101.233 279.32 99.9C279.92 99.1 280.354 98.6333 280.62 98.5C280.954 98.3 281.52 98.2 282.32 98.2H287.22C287.82 98.2 288.32 98.3667 288.72 98.7C289.12 99.0333 289.32 99.5 289.32 100.1C289.32 101.567 288.387 103.333 286.52 105.4C284.72 107.467 282.154 109.267 278.82 110.8C275.554 112.267 271.787 113 267.52 113ZM281.22 82.2V81.9C281.22 77.3 279.954 73.5667 277.42 70.7C274.954 67.7667 271.62 66.3 267.42 66.3C263.22 66.3 259.887 67.7667 257.42 70.7C255.02 73.5667 253.82 77.3 253.82 81.9V82.2H281.22ZM313.977 112C313.311 112 312.744 111.8 312.277 111.4C311.877 110.933 311.677 110.367 311.677 109.7V62.4C311.677 61.7333 311.877 61.1667 312.277 60.7C312.744 60.2333 313.311 60 313.977 60H318.577C319.244 60 319.811 60.2333 320.277 60.7C320.744 61.1667 320.977 61.7333 320.977 62.4V66.8C323.711 62.2667 328.377 60 334.977 60H338.877C339.544 60 340.077 60.2333 340.477 60.7C340.944 61.1 341.177 61.6333 341.177 62.3V66.4C341.177 67.0667 340.944 67.6 340.477 68C340.077 68.4 339.544 68.6 338.877 68.6H332.877C329.277 68.6 326.444 69.6667 324.377 71.8C322.311 73.8667 321.277 76.7 321.277 80.3V109.7C321.277 110.367 321.044 110.933 320.577 111.4C320.111 111.8 319.544 112 318.877 112H313.977ZM364.466 112C363.666 112 362.986 111.76 362.426 111.28C361.946 110.72 361.706 110.04 361.706 109.24V30.88C361.706 30 361.946 29.32 362.426 28.84C362.986 28.28 363.666 28 364.466 28H414.026C414.826 28 415.466 28.28 415.946 28.84C416.506 29.32 416.786 30 416.786 30.88V35.44C416.786 36.24 416.546 36.92 416.066 37.48C415.586 37.96 414.906 38.2 414.026 38.2H373.226V64.48H411.386C412.186 64.48 412.826 64.76 413.306 65.32C413.866 65.8 414.146 66.48 414.146 67.36V71.8C414.146 72.6 413.866 73.28 413.306 73.84C412.826 74.32 412.186 74.56 411.386 74.56H373.226V101.8H414.986C415.866 101.8 416.546 102.04 417.026 102.52C417.506 103 417.746 103.68 417.746 104.56V109.24C417.746 110.04 417.466 110.72 416.906 111.28C416.426 111.76 415.786 112 414.986 112H364.466ZM440.839 112C440.199 112 439.599 111.76 439.039 111.28C438.559 110.8 438.319 110.2 438.319 109.48C438.319 108.76 438.599 108.04 439.159 107.32L460.039 80.08L440.479 54.28C439.919 53.64 439.639 52.92 439.639 52.12C439.639 51.4 439.879 50.8 440.359 50.32C440.839 49.84 441.439 49.6 442.159 49.6H448.279C449.479 49.6 450.519 50.24 451.399 51.52L467.359 72.28L483.319 51.64C483.799 51 484.239 50.52 484.639 50.2C485.119 49.8 485.719 49.6 486.439 49.6H492.319C493.039 49.6 493.639 49.84 494.119 50.32C494.599 50.8 494.839 51.4 494.839 52.12C494.839 52.92 494.559 53.64 493.999 54.28L474.199 80.32L495.079 107.32C495.639 108.04 495.919 108.76 495.919 109.48C495.919 110.2 495.679 110.8 495.199 111.28C494.719 111.76 494.119 112 493.399 112H487.039C485.839 112 484.799 111.4 483.919 110.2L467.119 88.24L450.079 110.2C449.599 110.76 449.119 111.2 448.639 111.52C448.239 111.84 447.679 112 446.959 112H440.839ZM542.766 113.2C534.206 113.2 527.486 110.8 522.606 106C517.806 101.12 515.246 94.32 514.926 85.6L514.806 80.8L514.926 76C515.246 67.28 517.806 60.52 522.606 55.72C527.486 50.84 534.206 48.4 542.766 48.4C548.526 48.4 553.406 49.44 557.406 51.52C561.406 53.6 564.366 56.16 566.286 59.2C568.286 62.24 569.366 65.28 569.526 68.32C569.606 69.12 569.366 69.76 568.806 70.24C568.246 70.72 567.566 70.96 566.766 70.96H561.006C560.206 70.96 559.606 70.8 559.206 70.48C558.806 70.16 558.406 69.52 558.006 68.56C556.646 64.72 554.726 62 552.246 60.4C549.766 58.72 546.646 57.88 542.886 57.88C537.926 57.88 533.966 59.44 531.006 62.56C528.126 65.6 526.566 70.28 526.326 76.6L526.206 80.92L526.326 85C526.566 91.4 528.126 96.12 531.006 99.16C533.886 102.2 537.846 103.72 542.886 103.72C546.646 103.72 549.766 102.92 552.246 101.32C554.726 99.64 556.646 96.88 558.006 93.04C558.406 92.08 558.806 91.44 559.206 91.12C559.606 90.72 560.206 90.52 561.006 90.52H566.766C567.566 90.52 568.246 90.8 568.806 91.36C569.366 91.84 569.606 92.48 569.526 93.28C569.366 96.24 568.286 99.28 566.286 102.4C564.366 105.44 561.406 108 557.406 110.08C553.486 112.16 548.606 113.2 542.766 113.2ZM597.457 112C596.657 112 595.977 111.76 595.417 111.28C594.937 110.72 594.697 110.04 594.697 109.24V29.56C594.697 28.76 594.937 28.12 595.417 27.64C595.977 27.08 596.657 26.8 597.457 26.8H603.457C604.257 26.8 604.897 27.08 605.377 27.64C605.937 28.12 606.217 28.76 606.217 29.56V57.52C608.537 54.56 611.257 52.32 614.377 50.8C617.497 49.2 621.377 48.4 626.017 48.4C633.697 48.4 639.657 50.88 643.897 55.84C648.217 60.72 650.377 67.24 650.377 75.4V109.24C650.377 110.04 650.097 110.72 649.537 111.28C649.057 111.76 648.417 112 647.617 112H641.617C640.817 112 640.137 111.76 639.577 111.28C639.097 110.72 638.857 110.04 638.857 109.24V76C638.857 70.32 637.457 65.92 634.657 62.8C631.937 59.68 627.977 58.12 622.777 58.12C617.737 58.12 613.697 59.72 610.657 62.92C607.697 66.04 606.217 70.4 606.217 76V109.24C606.217 110.04 605.937 110.72 605.377 111.28C604.897 111.76 604.257 112 603.457 112H597.457ZM695.902 113.2C691.982 113.2 688.342 112.4 684.982 110.8C681.622 109.2 678.942 107.04 676.942 104.32C675.022 101.52 674.062 98.44 674.062 95.08C674.062 89.8 676.222 85.48 680.542 82.12C684.942 78.68 690.862 76.44 698.302 75.4L716.182 72.88V69.4C716.182 61.24 711.502 57.16 702.142 57.16C698.622 57.16 695.742 57.92 693.502 59.44C691.262 60.88 689.582 62.6 688.462 64.6C688.222 65.32 687.902 65.84 687.502 66.16C687.182 66.48 686.702 66.64 686.062 66.64H680.902C680.182 66.64 679.542 66.4 678.982 65.92C678.502 65.36 678.262 64.72 678.262 64C678.342 62.08 679.222 59.92 680.902 57.52C682.662 55.04 685.342 52.92 688.942 51.16C692.542 49.32 696.982 48.4 702.262 48.4C711.222 48.4 717.662 50.52 721.582 54.76C725.502 58.92 727.462 64.12 727.462 70.36V109.24C727.462 110.04 727.182 110.72 726.622 111.28C726.142 111.76 725.502 112 724.702 112H719.182C718.382 112 717.702 111.76 717.142 111.28C716.662 110.72 716.422 110.04 716.422 109.24V104.08C714.662 106.64 712.102 108.8 708.742 110.56C705.382 112.32 701.102 113.2 695.902 113.2ZM698.422 104.2C703.622 104.2 707.862 102.52 711.142 99.16C714.502 95.72 716.182 90.8 716.182 84.4V81.04L702.262 83.08C696.582 83.88 692.302 85.24 689.422 87.16C686.542 89 685.102 91.36 685.102 94.24C685.102 97.44 686.422 99.92 689.062 101.68C691.702 103.36 694.822 104.2 698.422 104.2ZM758.273 112C757.473 112 756.793 111.76 756.233 111.28C755.753 110.72 755.513 110.04 755.513 109.24V52.36C755.513 51.56 755.753 50.92 756.233 50.44C756.793 49.88 757.473 49.6 758.273 49.6H763.913C764.713 49.6 765.353 49.88 765.833 50.44C766.393 50.92 766.673 51.56 766.673 52.36V57.64C768.993 54.68 771.713 52.4 774.833 50.8C778.033 49.2 781.993 48.4 786.713 48.4C794.393 48.4 800.353 50.88 804.593 55.84C808.913 60.72 811.073 67.24 811.073 75.4V109.24C811.073 110.04 810.793 110.72 810.233 111.28C809.753 111.76 809.113 112 808.313 112H802.313C801.513 112 800.833 111.76 800.273 111.28C799.793 110.72 799.553 110.04 799.553 109.24V76C799.553 70.32 798.153 65.92 795.353 62.8C792.633 59.68 788.673 58.12 783.473 58.12C778.433 58.12 774.433 59.72 771.473 62.92C768.513 66.04 767.033 70.4 767.033 76V109.24C767.033 110.04 766.753 110.72 766.193 111.28C765.713 111.76 765.073 112 764.273 112H758.273ZM864.646 138.4C858.086 138.4 852.806 137.28 848.806 135.04C844.806 132.88 841.966 130.4 840.286 127.6C838.606 124.8 837.686 122.28 837.526 120.04C837.446 119.24 837.686 118.56 838.246 118C838.886 117.44 839.566 117.16 840.286 117.16H846.046C846.766 117.16 847.366 117.32 847.846 117.64C848.326 118.04 848.726 118.72 849.046 119.68C850.006 122.24 851.566 124.44 853.726 126.28C855.966 128.2 859.406 129.16 864.046 129.16C869.966 129.16 874.326 127.88 877.126 125.32C879.926 122.84 881.326 118.4 881.326 112V103.84C879.246 106.48 876.606 108.6 873.406 110.2C870.206 111.72 866.406 112.48 862.006 112.48C853.526 112.48 847.166 109.8 842.926 104.44C838.766 99 836.566 92.12 836.326 83.8L836.206 80.44L836.326 77.2C836.566 68.96 838.806 62.12 843.046 56.68C847.286 51.16 853.606 48.4 862.006 48.4C870.406 48.4 876.966 51.48 881.686 57.64V52.48C881.686 51.68 881.926 51 882.406 50.44C882.966 49.88 883.646 49.6 884.446 49.6H889.966C890.766 49.6 891.446 49.88 892.006 50.44C892.566 51 892.846 51.68 892.846 52.48V110.68C892.846 129.16 883.446 138.4 864.646 138.4ZM864.406 102.88C869.846 102.88 873.966 101.08 876.766 97.48C879.566 93.88 881.086 89.6 881.326 84.64C881.406 83.92 881.446 82.52 881.446 80.44C881.446 78.44 881.406 77.08 881.326 76.36C881.086 71.4 879.566 67.12 876.766 63.52C874.046 59.92 869.926 58.12 864.406 58.12C858.726 58.12 854.606 59.88 852.046 63.4C849.486 66.92 848.086 71.56 847.846 77.32L847.726 80.44L847.846 83.68C848.086 89.36 849.486 94 852.046 97.6C854.606 101.12 858.726 102.88 864.406 102.88ZM946.448 113.2C938.208 113.2 931.608 110.68 926.648 105.64C921.768 100.52 919.088 93.56 918.608 84.76L918.488 80.68L918.608 76.72C919.168 68.08 921.888 61.2 926.768 56.08C931.728 50.96 938.248 48.4 946.328 48.4C955.208 48.4 962.088 51.24 966.968 56.92C971.848 62.52 974.288 70.12 974.288 79.72V81.76C974.288 82.56 974.008 83.24 973.448 83.8C972.968 84.28 972.328 84.52 971.528 84.52H930.008V85.6C930.248 90.8 931.808 95.24 934.688 98.92C937.648 102.52 941.528 104.32 946.328 104.32C950.008 104.32 953.008 103.6 955.328 102.16C957.728 100.64 959.488 99.08 960.608 97.48C961.328 96.52 961.848 95.96 962.168 95.8C962.568 95.56 963.248 95.44 964.208 95.44H970.088C970.808 95.44 971.408 95.64 971.888 96.04C972.368 96.44 972.608 97 972.608 97.72C972.608 99.48 971.488 101.6 969.248 104.08C967.088 106.56 964.008 108.72 960.008 110.56C956.088 112.32 951.568 113.2 946.448 113.2ZM962.888 76.24V75.88C962.888 70.36 961.368 65.88 958.328 62.44C955.368 58.92 951.368 57.16 946.328 57.16C941.288 57.16 937.288 58.92 934.328 62.44C931.448 65.88 930.008 70.36 930.008 75.88V76.24H962.888Z" transform="translate(362 78)" fill="white"/>
</svg>
